<svg width="35" height="27" viewBox="0 0 35 27" fill="none" xmlns="http://www.w3.org/2000/svg">
<path fill-rule="evenodd" clip-rule="evenodd" d="M21.5883 0H12.5777C10.6018 0 8.99995 1.59697 8.99995 3.56702V7.13403V18.892C8.99995 20.862 10.6018 22.459 12.5777 22.459C14.5537 22.459 16.1554 20.862 16.1554 18.892V7.13403H21.5883C23.5642 7.13403 25.166 5.53707 25.166 3.56702C25.166 1.59697 23.5642 0 21.5883 0Z" fill="#9A2E34"/>
<path fill-rule="evenodd" clip-rule="evenodd" d="M21.5896 5.81279H16.1568H14.8317V7.1339V18.8918C14.8317 20.1303 13.8212 21.1377 12.5791 21.1377C11.3369 21.1377 10.3264 20.1303 10.3264 18.8918V7.1339V3.56689C10.3264 2.32847 11.3369 1.32099 12.5791 1.32099H21.5896C22.8317 1.32099 23.8422 2.32847 23.8422 3.56689C23.8422 4.8053 22.8317 5.81279 21.5896 5.81279ZM21.5883 0H12.5777C10.6018 0 8.99995 1.59697 8.99995 3.56702V7.13403V18.892C8.99995 20.862 10.6018 22.459 12.5777 22.459C14.5537 22.459 16.1554 20.862 16.1554 18.892V7.13403H21.5883C23.5642 7.13403 25.166 5.53707 25.166 3.56702C25.166 1.59697 23.5642 0 21.5883 0Z" fill="#F2994A"/>
<path fill-rule="evenodd" clip-rule="evenodd" d="M3.57774 0H12.5884C14.5643 0 16.1661 1.59697 16.1661 3.56702V7.13403V18.892C16.1661 20.862 14.5643 22.459 12.5884 22.459C10.6124 22.459 9.0106 20.862 9.0106 18.892V7.13403H3.57774C1.60177 7.13403 0 5.53707 0 3.56702C0 1.59697 1.60177 0 3.57774 0Z" fill="#9A2E34"/>
<path d="M3.57643 5.81279H9.00926H10.3344V7.1339V18.8918C10.3344 20.1303 11.3449 21.1377 12.587 21.1377C13.8292 21.1377 14.8397 20.1303 14.8397 18.8918V7.1339L16.1661 7.13403V18.892C16.1661 20.862 14.5643 22.459 12.5884 22.459C10.6124 22.459 9.0106 20.862 9.0106 18.892V7.13403H3.57774C1.60177 7.13403 0 5.53707 0 3.56702C0 1.59697 1.60177 0 3.57774 0H12.5884H16V1.32099H12.587H3.57643C2.33429 1.32099 1.32379 2.32847 1.32379 3.56689C1.32379 4.8053 2.33429 5.81279 3.57643 5.81279Z" fill="#F2994A"/>
<path fill-rule="evenodd" clip-rule="evenodd" d="M30.5883 4H21.5777C19.6018 4 18 5.59697 18 7.56702V11.134V22.892C18 24.862 19.6018 26.459 21.5777 26.459C23.5537 26.459 25.1554 24.862 25.1554 22.892V11.134H30.5883C32.5642 11.134 34.166 9.53707 34.166 7.56702C34.166 5.59697 32.5642 4 30.5883 4Z" fill="#9A2E34"/>
<path fill-rule="evenodd" clip-rule="evenodd" d="M30.5896 9.81279H25.1568H23.8317V11.1339V22.8918C23.8317 24.1303 22.8212 25.1377 21.5791 25.1377C20.3369 25.1377 19.3264 24.1303 19.3264 22.8918V11.1339V7.56689C19.3264 6.32847 20.3369 5.32099 21.5791 5.32099H30.5896C31.8317 5.32099 32.8422 6.32847 32.8422 7.56689C32.8422 8.8053 31.8317 9.81279 30.5896 9.81279ZM30.5883 4H21.5777C19.6018 4 18 5.59697 18 7.56702V11.134V22.892C18 24.862 19.6018 26.459 21.5777 26.459C23.5537 26.459 25.1554 24.862 25.1554 22.892V11.134H30.5883C32.5642 11.134 34.166 9.53707 34.166 7.56702C34.166 5.59697 32.5642 4 30.5883 4Z" fill="#F5CC6A"/>
<path fill-rule="evenodd" clip-rule="evenodd" d="M12.5777 4H21.5884C23.5643 4 25.1661 5.59697 25.1661 7.56702V11.134V22.892C25.1661 24.862 23.5643 26.459 21.5884 26.459C19.6124 26.459 18.0106 24.862 18.0106 22.892V11.134H12.5777C10.6018 11.134 9 9.53707 9 7.56702C9 5.59697 10.6018 4 12.5777 4Z" fill="#9A2E34"/>
<path d="M12.5764 9.81279H18.0093H19.3344V11.1339V22.8918C19.3344 24.1303 20.3449 25.1377 21.587 25.1377C22.8292 25.1377 23.8397 24.1303 23.8397 22.8918V11.1339V9.81279H25.1661V11.134V22.892C25.1661 24.862 23.5643 26.459 21.5884 26.459C19.6124 26.459 18.0106 24.862 18.0106 22.892V11.134H12.5777C10.6018 11.134 9 9.53707 9 7.56702C9 5.59697 10.6018 4 12.5777 4H21.5884H25V5.32099H21.587H12.5764C11.3343 5.32099 10.3238 6.32847 10.3238 7.56689C10.3238 8.8053 11.3343 9.81279 12.5764 9.81279Z" fill="#F5CC6A"/>
</svg>
