<svg width="24" height="46" viewBox="0 0 24 46" fill="none" xmlns="http://www.w3.org/2000/svg">
<path d="M18.6659 0.369064C19.1603 0.226719 19.6323 0.0881195 19.7147 0.054409C19.8983 -0.0130196 19.8908 -0.0130157 19.9544 0.0281906C20.1342 0.140568 19.5237 0.987137 18.5909 1.92361C17.6844 2.83386 17.0364 3.1972 16.1561 3.29085C15.9426 3.31707 15.7516 3.32457 15.7291 3.31333C15.7104 3.30209 15.4369 3.48564 15.1223 3.72538C14.8485 3.93153 14.5359 4.16816 14.3655 4.2971L14.2944 4.35094C14.1558 4.45583 14.0472 4.54572 14.0509 4.54947C14.0547 4.55322 14.1596 4.53449 14.2832 4.50452C14.5978 4.42586 15.6991 4.39214 16.1636 4.44833C16.3659 4.47455 16.7143 4.53448 16.939 4.58693C17.7444 4.76673 19.0105 5.24621 18.9768 5.35859C18.9505 5.4335 18.7295 5.49718 18.4936 5.49718C18.2351 5.50093 17.5533 5.57209 16.306 5.72568C14.7065 5.92421 13.6351 5.91672 12.8972 5.7032L12.5975 5.61705L12.3728 5.79311C12.1031 5.99913 11.3988 6.59098 11.1366 6.83072L10.9493 6.99928L11.0879 6.94309C11.3501 6.83821 11.8858 6.69586 12.2417 6.63967C13.0133 6.51606 14.7851 6.50857 15.1185 6.62469C15.2459 6.67339 15.2758 6.77078 15.1859 6.8457C15.1597 6.86817 14.7814 7.04797 14.3543 7.23901C13.9236 7.4338 13.2868 7.72598 12.9347 7.8908C11.7098 8.47141 10.616 8.75985 9.64203 8.75985C9.28991 8.75985 9.28242 8.76359 9.18503 8.87222C8.78796 9.31424 7.61176 10.9737 7.77283 10.8575C7.81403 10.8276 7.9826 10.7077 8.14367 10.5916C8.97151 9.99973 9.96417 9.56895 11.1741 9.28052C11.7397 9.14567 12.1031 9.11945 12.1218 9.2131C12.1368 9.28801 12.0207 9.40039 11.4363 9.87612C11.1703 10.0971 10.7321 10.468 10.4624 10.7077C9.87052 11.2359 9.4847 11.5355 8.87037 11.9551C7.99758 12.5469 7.09108 13.0302 6.69402 13.1126L6.47675 13.1575L6.30819 13.5321C6.02725 14.1726 5.46162 15.6747 5.46162 15.7946C5.46162 15.8059 5.53279 15.716 5.61895 15.5923C5.8849 15.214 6.29321 14.7495 6.56666 14.5135C7.00118 14.1427 8.27852 13.3486 9.14382 12.914C9.61206 12.678 9.73193 12.6368 9.73193 12.7192C9.73193 12.753 9.54089 13.0339 9.30864 13.3448C9.07265 13.6557 8.63064 14.2813 8.32722 14.7345C7.166 16.4539 6.51796 17.1993 5.59647 17.8886C5.22188 18.1695 4.98215 18.3119 4.8885 18.3119C4.83231 18.3119 4.71244 19.0236 4.61505 19.9413C4.56261 20.447 4.47645 21.9491 4.50267 21.9716C4.51016 21.9791 4.54388 21.8555 4.58134 21.6944C4.79111 20.7317 5.18442 19.9001 5.7538 19.2109C6.14337 18.7389 7.8028 17.1132 7.89644 17.1132C7.91143 17.1132 7.91143 17.1843 7.88895 17.2705C7.84775 17.4578 7.48065 18.6827 7.2559 19.3832C7.17349 19.6491 7.08359 19.9263 7.06486 19.9975C6.98245 20.2784 6.58538 21.346 6.47301 21.5858C6.32317 21.9004 5.8437 22.6159 5.29305 23.3501C4.78361 24.0243 4.7012 24.1105 4.61879 24.0431C4.5701 24.0019 4.56635 24.0093 4.58134 24.103C4.58883 24.1629 4.61505 24.3877 4.63752 24.6049C4.71619 25.3504 4.89974 26.3917 5.09452 27.1896L5.18068 27.5455L5.20315 27.021C5.2556 25.9123 5.48035 25.2155 6.20705 23.9119C6.8476 22.7657 7.38326 22.0165 7.4844 22.1177C7.57804 22.2113 7.2971 26.1707 7.12854 27.1596C6.98994 27.9762 6.38685 29.2011 5.97106 29.512L5.8437 29.6094L6.00477 29.999C6.252 30.6133 6.45428 31.0516 6.77268 31.6809C7.06111 32.2465 7.4769 32.977 7.43195 32.8309C7.41697 32.7934 7.36453 32.5162 7.30834 32.2128C7.17723 31.4899 7.17349 30.8531 7.28961 30.1676C7.40948 29.4821 7.6155 28.5456 7.75035 28.0661C7.86648 27.6578 8.1212 27.0248 8.19611 26.9499C8.25605 26.8899 8.30849 26.9911 8.30849 27.1559C8.30849 27.4144 8.47331 28.2534 8.79546 29.6244C9.13633 31.0891 9.26369 31.9693 9.23372 32.6399C9.19627 33.3815 9.03519 34.1757 8.83666 34.584L8.72803 34.8012L9.0277 35.1758C9.36858 35.6029 10.114 36.4419 10.4062 36.7229L10.5972 36.9102L10.4848 36.6817C10.2189 36.146 10.144 35.5429 10.144 33.9696C10.144 32.8346 10.1814 31.7596 10.2226 31.7596C10.2376 31.7596 10.4099 32.0705 10.6085 32.4488C10.9793 33.1643 11.3202 33.7674 11.6985 34.3817C12.4814 35.6478 12.9534 37.3297 12.8073 38.3036C12.7773 38.4872 12.7549 38.6632 12.7511 38.7044C12.7436 38.8131 13.77 39.5098 14.8413 40.1279L15.0211 40.2328L14.875 40.0342C14.3469 39.3075 14.0247 38.5471 13.6988 37.2773C13.5602 36.7304 13.3804 35.7415 13.4141 35.704C13.4329 35.689 15.9014 38.2062 16.3397 38.6895C17.2012 39.6372 17.5421 40.2777 17.6283 41.1243L17.6545 41.3977L17.8043 41.4502C18.34 41.645 19.9282 42.0757 20.0031 42.0533C20.0219 42.0458 19.9544 41.9784 19.8533 41.9034C19.2427 41.4352 18.2501 40.2103 17.868 39.4574C17.7406 39.1989 17.5608 38.7082 17.5608 38.6145C17.5608 38.5958 17.8268 38.7157 18.1527 38.8768C18.4748 39.0378 19.0367 39.2813 19.3963 39.4162C20.6961 39.9069 21.1344 40.1279 21.6401 40.5399C22.0746 40.8958 22.3818 41.3341 22.659 41.9933C22.7451 42.2069 22.835 42.4016 22.8538 42.4241C22.88 42.4616 23.1347 42.4728 23.8914 42.4728L24 43.222H23.2658L23.0261 43.5104C22.6028 44.0161 22.1758 44.357 21.6251 44.6267C20.7074 45.0762 19.5387 45.4133 18.4598 45.5444C17.5009 45.6568 15.3133 45.743 15.3133 45.6643C15.3133 45.6081 15.8939 45.2972 17.5046 44.4993C19.7035 43.4055 20.0106 43.2707 20.7411 43.0796L21.0145 43.0085L20.7411 42.9635C20.2466 42.8849 19.2689 42.6638 18.7483 42.5178L18.2463 42.3754L17.8942 42.6826C17.1076 43.3793 16.2535 43.6603 14.8151 43.6977C13.9573 43.7202 13.4741 43.6827 12.7474 43.5366C12.2454 43.4355 9.34985 42.5777 9.33112 42.5253C9.32363 42.5065 9.59333 42.4428 9.93046 42.3867C10.2638 42.3267 10.8819 42.2106 11.3052 42.1319C12.7286 41.8622 13.2718 41.7648 13.6464 41.7199C14.2083 41.6487 15.6916 41.6562 16.1711 41.7349C16.3846 41.7686 16.5682 41.7948 16.5757 41.7873C16.5794 41.7798 16.4895 41.7349 16.3696 41.6862C15.6317 41.3902 13.9386 40.48 13.2306 40.0005C13.1182 39.9219 13.0733 39.9031 13.1145 39.9518C13.1781 40.0267 13.1781 40.0305 12.871 40.1616C12.6987 40.2328 12.4664 40.3189 12.354 40.3526C11.7734 40.5249 10.8295 40.5736 10.144 40.4688C9.55212 40.3789 8.40963 39.9855 7.73537 39.6372C7.04987 39.2851 4.67498 37.6106 4.67498 37.4833C4.67498 37.3447 8.08748 37.6631 9.61955 37.9478C10.0241 38.0227 10.099 38.0489 10.8182 38.4123C11.4475 38.7269 11.5562 38.7719 11.4176 38.6595C10.6946 38.0639 9.73567 37.1312 9.08389 36.3783C8.81419 36.0673 8.77673 36.0374 8.69432 36.0711C8.64562 36.0898 8.39839 36.116 8.14367 36.1273C7.78407 36.146 7.60052 36.1385 7.31209 36.0861C6.84385 36.0037 6.1621 35.7976 5.81748 35.6403C5.01211 35.2657 3.68607 34.0933 2.85074 33.0182C2.60726 32.7073 2.23641 32.2465 2.02664 31.9918C1.49847 31.3588 1.50971 31.3138 2.13902 31.5386C2.36003 31.6172 2.84699 31.7596 3.21783 31.8532C4.12434 32.0855 4.53639 32.2316 5.29305 32.6024C5.99353 32.947 6.46552 33.2317 6.86633 33.5501C7.07984 33.7224 7.11355 33.7412 7.05362 33.6512C6.69776 33.1081 5.61145 31.0479 5.61145 30.9093C5.61145 30.8755 5.55901 30.8606 5.4354 30.8606C5.24436 30.8606 4.65251 30.6695 4.19551 30.4635C3.71978 30.2462 3.19536 29.8717 2.74585 29.4184C2.29635 28.9689 2.08658 28.6842 1.69701 27.995C1.37861 27.4256 -0.0148636 24.6087 0.000119926 24.5637C0.0113576 24.5263 0.835452 25.0095 1.39733 25.3841C3.58868 26.8525 3.91082 27.1034 4.33036 27.6578C4.42401 27.7814 4.51391 27.8976 4.52889 27.9163C4.54388 27.9313 4.50642 27.759 4.44648 27.5305C4.30789 26.9873 4.13932 26.1782 4.03818 25.5414C3.99323 25.2642 3.95577 25.0357 3.95203 25.0357C3.87711 25.0245 3.40887 24.766 3.13917 24.59C1.87306 23.7584 1.21753 22.5297 0.78301 20.1661C0.678125 19.6004 0.46461 18.5104 0.415913 18.2819C0.40093 18.2257 0.412167 18.1995 0.453372 18.1995C0.547019 18.1995 1.79814 19.2184 2.03414 19.4843C2.48739 19.9975 3.16165 21.0014 3.5662 21.7618L3.77597 22.1514V21.8143C3.77597 21.3573 3.83965 20.3534 3.90708 19.7278C3.97825 19.0798 3.97825 19.1097 3.87711 19.0835C3.82841 19.0723 3.68607 18.9973 3.55871 18.9149C2.78331 18.413 2.39374 17.6788 2.22143 16.4014C2.15775 15.9407 2.15026 14.7121 2.2027 13.9479C2.22518 13.6595 2.25514 13.1163 2.27387 12.738C2.28886 12.3634 2.31508 12.045 2.33006 12.03C2.37501 11.9851 2.49488 12.1349 2.74585 12.5544C2.88445 12.7829 3.1579 13.21 3.34894 13.5021C3.82467 14.2176 4.22548 15.1616 4.4315 16.0456C4.47645 16.2516 4.52515 16.394 4.53639 16.364C4.54762 16.334 4.61879 16.098 4.69371 15.8396C4.86977 15.2515 5.08328 14.6259 5.28182 14.1389C5.36423 13.9292 5.43914 13.7344 5.45038 13.7044C5.46162 13.6744 5.42416 13.7044 5.36423 13.7718L5.2556 13.8955L4.98589 13.416C4.67498 12.8578 4.55886 12.5844 4.45398 12.1574C4.21799 11.1984 4.34909 10.3219 5.04957 8.12305C5.49159 6.74081 5.54403 6.57974 5.574 6.61345C5.58898 6.62844 5.69386 6.93935 5.80999 7.29895C6.36063 9.02955 6.42806 9.29925 6.47301 10.0222C6.50297 10.5167 6.47301 11.1422 6.39809 11.5281C6.37936 11.6404 6.36812 11.7378 6.37562 11.7491C6.38685 11.7566 6.43555 11.6816 6.48799 11.5768C6.76519 11.0336 7.50687 9.88361 8.05377 9.16066L8.38715 8.71489L8.1137 8.94714C7.94139 9.08948 7.81403 9.17189 7.76534 9.1644C7.51811 9.12694 7.31583 7.9807 7.40573 7.13039C7.54433 5.87551 7.85898 5.2949 9.5259 3.22718C9.72443 2.9762 9.87052 2.82637 9.88551 2.85258C9.89675 2.87881 9.93795 3.22717 9.97541 3.62798C10.1178 5.18253 9.95293 6.32502 9.436 7.32517L9.25245 7.68103L9.75066 7.16035C10.1664 6.72583 10.8257 6.10776 11.279 5.72193L11.3876 5.63203L11.3052 5.38855C11.1891 5.05142 11.1891 4.54198 11.3015 4.13742C11.4063 3.75909 11.6723 3.2459 11.9495 2.87506C12.193 2.55291 12.7811 1.95732 13.122 1.69511C13.5864 1.33176 14.8563 0.518902 14.9537 0.518902C14.9837 0.518902 14.5716 2.0622 14.4517 2.41057C14.2607 2.94623 13.9498 3.51935 13.6239 3.93889C13.5677 4.01381 13.7063 3.93889 14.0996 3.68043C14.4068 3.4819 14.8526 3.19346 15.0923 3.03988L15.5306 2.76643L15.6242 2.45552C15.8377 1.77377 16.231 1.3355 16.9428 0.975895C17.3773 0.758636 17.6582 0.657497 18.6659 0.369064Z" fill="url(#paint0_linear_55_617)"/>
<defs>
<linearGradient id="paint0_linear_55_617" x1="12" y1="45.6947" x2="12" y2="-3.43323e-05" gradientUnits="userSpaceOnUse">
<stop stop-color="#BF953F"/>
<stop offset="0.336805" stop-color="#FCF6BA"/>
<stop offset="1" stop-color="#B38728"/>
</linearGradient>
</defs>
</svg>
